<?xml version="1.0" standalone="no"?>
<!DOCTYPE svg PUBLIC "-//W3C//DTD SVG 20010904//EN"
 "http://www.w3.org/TR/2001/REC-SVG-20010904/DTD/svg10.dtd">
<svg version="1.0" xmlns="http://www.w3.org/2000/svg"
 width="375.000000pt" height="480.000000pt" viewBox="0 0 375.000000 480.000000"
 preserveAspectRatio="xMidYMid meet">

<g transform="translate(0.000000,480.000000) scale(0.100000,-0.100000)"
fill="#000000" stroke="none">
<path d="M0 2400 l0 -2400 1875 0 1875 0 0 2400 0 2400 -1875 0 -1875 0 0
-2400z m688 1635 c29 -9 52 -20 52 -25 0 -21 -24 -116 -33 -127 -6 -9 -16 -9
-35 -2 -15 6 -63 11 -108 11 -103 1 -145 -18 -182 -81 -25 -43 -27 -53 -27
-166 0 -102 3 -126 21 -159 32 -63 63 -80 150 -84 l74 -4 0 81 0 81 -55 0 -56
0 3 73 3 72 135 0 135 0 3 -203 2 -203 -57 -27 c-53 -25 -68 -27 -178 -27
-104 1 -127 4 -173 24 -65 29 -134 103 -157 169 -38 110 -36 315 5 423 34 91
98 151 190 180 46 14 233 10 288 -6z m990 -152 l3 -143 109 0 109 0 3 143 3
142 80 0 80 0 0 -385 0 -385 -80 0 -80 0 -3 163 -2 162 -110 0 -110 0 -2 -162
-3 -163 -80 0 -80 0 -3 375 c-1 206 0 381 3 388 3 9 26 12 82 10 l78 -3 3
-142z m1190 15 c1 -71 4 -128 5 -128 1 0 24 7 51 15 198 60 311 -78 276 -337
-13 -96 -44 -159 -93 -185 -48 -27 -179 -24 -233 5 -42 21 -42 21 -47 1 -5
-18 -12 -20 -64 -17 l-58 3 -3 375 c-1 206 0 381 3 388 3 9 26 12 82 10 l78
-3 3 -127z m-1860 77 c44 -51 17 -136 -49 -150 -71 -16 -132 51 -109 120 22
67 111 84 158 30z m320 -122 l3 -73 53 0 c60 0 66 -6 66 -70 0 -64 -6 -70 -66
-70 l-54 0 0 -119 c0 -85 4 -122 13 -128 6 -4 32 -10 57 -13 l45 -5 0 -60 0
-60 -48 -9 c-97 -17 -185 16 -219 84 -15 28 -18 62 -18 172 l0 137 -42 3 -43
3 0 55 0 54 40 12 40 11 3 77 3 77 82 -3 82 -3 3 -72z m-310 -335 l-3 -263
-60 -3 c-32 -2 -69 -1 -82 3 l-23 5 0 260 0 260 85 0 85 0 -2 -262z m1292 78
c0 -154 3 -187 16 -200 17 -18 70 -21 108 -6 l26 10 0 190 0 190 85 0 85 0 -2
-262 -3 -263 -53 -3 c-46 -3 -54 0 -59 16 -5 20 -6 20 -51 -1 -67 -31 -208
-31 -248 -1 -68 50 -69 54 -72 295 l-3 219 85 0 86 0 0 -184z"/>
<path d="M2898 3648 l-28 -10 0 -119 c0 -119 0 -120 26 -129 14 -6 43 -10 64
-10 50 0 69 26 77 103 14 138 -40 202 -139 165z"/>
</g>
</svg>
